/* XPM */
static char * label_xpm[] = {
"64 64 2 1",
" 	c None",
".	c #EC1212",
"                                                                ",
"                                                                ",
"                                                                ",
"                                                                ",
"                                                                ",
"                                                                ",
"                                                                ",
"                                                                ",
"                                                                ",
"                                                                ",
"                                                                ",
"                                                                ",
"                                                                ",
"                                                                ",
"                                                                ",
"                                                                ",
"                                                                ",
"                                                                ",
"                                                                ",
"                                                                ",
"                                                                ",
"                                                                ",
"                                                                ",
"                                                                ",
"                                                                ",
"                                                                ",
"                             ..                     ..          ",
"        ..                   ..                     ..          ",
"        ..                   ..                     ..          ",
"        ..                   ..                     ..          ",
"        ..         ....      .. ....       .....    ..          ",
"        ..        ......     ........    ........   ..          ",
"        ..        .   ...    ...   ...   ..    ...  ..          ",
"        ..             ..    ..     ..  ..      ..  ..          ",
"        ..         ......    ..     ..  ..........  ..          ",
"        ..       ........    ..     ..  ..........  ..          ",
"        ..       ..    ..    ..     ..  ..          ..          ",
"        ..       ..   ...    ...   ...   ..      .  ..          ",
"        ........ ........    ........    .........  ..          ",
"        ........  .... ..    .. ....       ......   ..          ",
"                                                                ",
"                                                                ",
"                                                                ",
"                                                                ",
"                                                                ",
"                                                                ",
"                                                                ",
"                                                                ",
"                                                                ",
"                                                                ",
"                                                                ",
"                                                                ",
"                                                                ",
"                                                                ",
"                                                                ",
"                                                                ",
"                                                                ",
"                                                                ",
"                                                                ",
"                                                                ",
"                                                                ",
"                                                                ",
"                                                                ",
"                                                                "};
