/* XPM */
static char * 无标题_xpm[] = {
"32 32 4 1",
" 	c None",
".	c #FFFFFF",
"+	c #270606",
"@	c #FD0A0A",
"................................",
"................................",
"................................",
"................................",
"........................+.......",
"........................+.......",
"........................+.......",
"....+.+++...++++..+.++..+.......",
"....++...+.+....+.++....+.......",
"....+....+.+....+.+.....+.......",
"....+....+.++++++.+.....+.......",
"....+....+.+......+.....+.......",
"....++...+.+....+.+.....+.......",
"....+.+++...++++..+.....+.......",
"....+...........................",
"....+...........................",
"....+...........................",
"................................",
"................................",
"................................",
".........@.....@..@@@@..........",
".........@.....@.@....@.........",
"..........@...@..@..............",
"...........@.@...@..............",
"............@.....@@@@..........",
"...........@.@........@.........",
"..........@...@.......@.........",
".........@.....@.@....@.........",
".........@.....@..@@@@..........",
"................................",
"................................",
"................................"};
